# xmcd
#
# Track frame offsets:
# 150
# 16825
# 32752
# 50235
#
# Disc length: 1047 seconds
#
#
# Revision: 2
# Processed by: cddbd v1.5.1PL2 Copyright (c) Steve Scherf et al.
# Submitted via: FreeRIP 2.945 
#
DISCID=2c041504
DTITLE=Peter Blakeley -  - Crying In The Chapel
DYEAR=1900
DGENRE=
TTITLE0=Peter Blakeley - Crying In The Chapel
TTITLE1=Peter Blakeley - Caterina
TTITLE2=Peter Blakeley - Vicious
TTITLE3=Peter Blakeley - Crying In The Chapel (The Jungle Mix)
EXTD=
EXTT0=
EXTT1=
EXTT2=
EXTT3=
PLAYORDER=
